<?xml version="1.0" encoding="utf-8"?>
<!-- Generator: Adobe Illustrator 16.0.0, SVG Export Plug-In . SVG Version: 6.00 Build 0)  -->
<!DOCTYPE svg PUBLIC "-//W3C//DTD SVG 1.1//EN" "http://www.w3.org/Graphics/SVG/1.1/DTD/svg11.dtd">
<svg version="1.1" id="Layer_1" xmlns="http://www.w3.org/2000/svg" xmlns:xlink="http://www.w3.org/1999/xlink" x="0px" y="0px"
	 width="512px" height="512px" viewBox="0 0 512 512" enable-background="new 0 0 512 512" xml:space="preserve">
<path fill="#43BA82" d="M254.73,2.836C117.765,2.836,6.333,114.267,6.333,251.235c0,58.257,20.167,111.886,53.875,154.293
	L41.602,512.396l103.943-38.087c32.974,16.204,70.033,25.324,109.188,25.324c136.968,0,248.398-111.431,248.398-248.399
	S391.697,2.836,254.73,2.836z"/>
<g>
	<path fill="#FFFFFF" d="M162.205,271.8c0.436,3.041,0.944,6.041,1.527,9.008c0.58,2.965,1.597,5.968,3.053,9.007
		c2.907,6.537,6.727,11.138,11.454,13.792c4.726,2.663,9.417,3.996,14.073,3.996c2.761,0,5.488-0.461,8.18-1.371
		c2.691-0.912,5.054-2.243,7.092-3.993c2.035-1.743,3.672-3.906,4.907-6.495c1.237-2.586,1.855-5.62,1.855-9.121
		c0-3.337-0.581-6.191-1.745-8.55c-1.166-2.354-2.619-4.407-4.363-6.151c-1.746-1.748-3.601-3.155-5.564-4.225
		c-1.963-1.061-3.745-1.968-5.344-2.734c-4.22-2.128-8.475-3.949-12.763-5.472c-4.293-1.519-8.546-3.268-12.764-5.242
		c-4.797-1.974-9.162-4.255-13.09-6.841c-3.927-2.583-7.346-5.587-10.254-9.007c-2.911-3.42-5.164-7.333-6.763-11.741
		c-1.602-4.409-2.399-9.577-2.399-15.506c0-7.598,1.272-14.21,3.818-19.835c2.543-5.622,5.962-10.335,10.254-14.136
		c4.288-3.798,9.163-6.612,14.616-8.436c5.456-1.826,11.091-2.736,16.91-2.736c5.091,0,9.417,0.533,12.982,1.595
		c3.562,1.064,6.469,2.358,8.726,3.875c2.254,1.522,4.072,3.118,5.456,4.789c1.38,1.674,2.434,3.191,3.165,4.56
		c0.288,0.608,0.725,1.369,1.308,2.279l0.438-14.137h23.561v54.267h-24.217c-0.147-1.063-0.293-2.471-0.434-4.219
		c-0.148-1.745-0.512-3.685-1.093-5.813c-0.581-2.127-1.346-4.333-2.292-6.613c-0.945-2.281-2.292-4.405-4.035-6.384
		c-2.183-2.737-5.056-5.019-8.618-6.84c-3.566-1.824-7.602-2.736-12.109-2.736c-6.403,0-11.204,1.789-14.399,5.356
		c-3.201,3.574-4.8,7.565-4.8,11.971c0,2.735,0.544,5.169,1.636,7.296c1.091,2.13,2.508,3.991,4.254,5.587
		c1.745,1.596,3.671,2.965,5.782,4.104c2.107,1.14,4.109,2.166,6,3.078c3.926,1.824,7.888,3.499,11.891,5.017
		c3.998,1.522,7.964,3.118,11.892,4.788c2.76,1.22,6.071,2.815,9.927,4.789c3.852,1.978,7.56,4.712,11.125,8.208
		c3.561,3.497,6.58,7.944,9.056,13.339c2.47,5.399,3.709,12.047,3.709,19.952c0,6.986-1.129,13.374-3.383,19.149
		c-2.258,5.775-5.42,10.716-9.491,14.82c-4.072,4.103-8.981,7.295-14.725,9.576c-5.748,2.279-12.184,3.419-19.309,3.419
		c-5.529,0-10.218-0.569-14.072-1.707c-3.856-1.14-7.13-2.587-9.817-4.336c-2.693-1.745-4.91-3.528-6.656-5.356
		c-1.744-1.82-3.127-3.418-4.144-4.785l-0.437,14.133h-23.788V271.8H162.205L162.205,271.8z"/>
	<path fill="#FFFFFF" d="M254.507,247.614c0-7.293,0.427-14.433,1.294-21.416c0.862-6.986,2.291-13.619,4.28-19.906
		c1.992-6.285,4.55-12.065,7.672-17.344c3.117-5.274,6.872-9.854,11.251-13.735c6.507-5.587,14.245-9.312,23.208-11.174
		c8.965-1.862,17.895-1.628,26.79,0.699c6.773,1.709,12.549,4.579,17.33,8.613c4.779,4.037,8.792,8.652,12.05,13.851
		c3.252,5.202,5.841,10.789,7.769,16.762c1.923,5.976,3.386,11.837,4.38,17.576c0.995,5.744,1.624,11.058,1.893,15.947
		c0.265,4.888,0.397,8.885,0.397,11.99c0,9.778-0.896,19.321-2.688,28.633c-1.791,9.314-4.813,18.16-9.065,26.542
		c-1.192,2.48-2.92,5.432-5.175,8.847c-2.26,3.417-5.216,6.636-8.864,9.658c-3.654,3.03-8.167,5.628-13.545,7.8
		c-5.377,2.171-11.851,3.258-19.422,3.258c-10.753,0-19.887-2.251-27.386-6.749c-7.501-4.5-13.645-10.63-18.426-18.39
		c-4.778-7.76-8.264-16.916-10.455-27.471C255.6,271.052,254.507,259.718,254.507,247.614z M345.534,249.01
		c0-5.121-0.333-11.174-0.996-18.158c-0.665-6.983-2.06-13.656-4.183-20.021c-2.127-6.363-5.279-11.755-9.461-16.18
		c-4.185-4.423-9.729-6.633-16.633-6.633c-5.843,0-10.824,1.552-14.938,4.655c-4.12,3.105-7.504,7.333-10.16,12.687
		c-2.658,5.354-4.615,11.64-5.875,18.856c-1.264,7.218-1.89,14.863-1.89,22.932c0,6.365,0.428,13.038,1.291,20.021
		c0.863,6.984,2.226,13.188,4.085,18.624c1.99,5.743,4.348,10.207,7.069,13.389c2.721,3.181,5.408,5.547,8.066,7.098
		c2.659,1.554,5.045,2.485,7.173,2.794c2.123,0.313,3.649,0.464,4.578,0.464c3.721,0,7.273-0.853,10.659-2.56
		c3.384-1.703,6.272-4.109,8.663-7.219c2.921-3.565,5.74-9.579,8.466-18.042C344.17,273.261,345.534,262.36,345.534,249.01z"/>
</g>
</svg>
